<?xml version="1.0" standalone="no"?>
<!DOCTYPE svg PUBLIC "-//W3C//DTD SVG 20010904//EN"
 "http://www.w3.org/TR/2001/REC-SVG-20010904/DTD/svg10.dtd">
<svg version="1.0" xmlns="http://www.w3.org/2000/svg"
 width="6016.000000pt" height="4016.000000pt" viewBox="0 0 6016.000000 4016.000000"
 preserveAspectRatio="xMidYMid meet">
<metadata>
Created by potrace 1.16, written by Peter Selinger 2001-2019
</metadata>
<g transform="translate(0.000000,4016.000000) scale(0.100000,-0.100000)"
fill="#000000" stroke="none">
<path d="M0 38717 c0 -1253 2 -1446 15 -1463 19 -25 19 -65 0 -90 -13 -17 -14
-2277 -15 -18591 l0 -18573 6566 0 c5554 0 6565 2 6561 14 -6 15 28 76 42 76
16 0 19 -61 4 -76 -12 -12 3254 -14 23486 -14 l23501 0 0 9849 0 9848 -27 -3
-28 -4 28 12 27 12 0 153 c0 146 -1 153 -20 153 -26 0 -26 16 0 30 20 11 20
21 20 10060 l0 10050 -30080 0 -30080 0 0 -1443z m11935 82 c13 -27 77 -49
122 -42 25 4 42 0 61 -14 15 -10 53 -25 84 -32 34 -8 59 -20 62 -30 3 -9 9
-22 12 -28 9 -21 -20 -15 -39 7 -9 11 -27 20 -41 20 -13 0 -35 9 -49 21 -20
15 -35 18 -60 14 -21 -4 -48 -1 -72 9 -54 23 -75 21 -72 -6 3 -33 -26 -33 -59
0 -65 64 -77 82 -59 82 9 0 25 -5 35 -10 15 -8 23 -6 37 9 23 25 26 25 38 0z
m26834 -38 c9 -6 15 -30 16 -64 3 -53 32 -121 73 -169 27 -32 8 -40 -38 -15
-39 20 -46 29 -52 65 -4 23 -10 47 -13 52 -10 15 -25 12 -25 -6 0 -9 -6 -14
-12 -11 -7 2 -12 13 -10 23 2 10 4 40 6 65 4 66 19 83 55 60z m-22169 -841 c0
-5 -6 -13 -12 -17 -14 -8 -43 -63 -53 -99 -4 -17 2 -26 27 -42 28 -18 30 -22
15 -28 -10 -3 -23 -20 -30 -36 l-12 -29 -35 23 c-27 18 -35 31 -35 54 0 16 -4
35 -9 42 -10 17 18 50 48 54 14 2 20 9 18 22 -4 23 35 66 60 66 10 0 18 -4 18
-10z m-2036 -404 c-4 -16 -1 -25 10 -29 36 -14 11 -24 -73 -30 -57 -4 -99 -11
-114 -22 -16 -10 -42 -15 -69 -14 -24 2 -50 -1 -56 -5 -7 -4 -12 -2 -12 4 0 6
8 13 18 16 9 3 40 16 68 29 29 13 69 27 90 30 22 4 49 14 62 22 12 7 27 11 32
8 5 -3 11 -1 15 5 3 5 13 10 21 10 10 0 13 -7 8 -24z m-1296 -27 c-4 -27 -1
-32 24 -41 16 -6 33 -19 39 -29 15 -30 -32 -25 -61 6 -38 41 -85 30 -85 -20 0
-15 -10 -22 -40 -28 -22 -4 -52 -10 -67 -14 -42 -8 -34 13 12 37 40 21 49 33
29 45 -5 4 -9 11 -7 17 4 12 78 39 89 33 4 -3 12 2 19 10 7 8 21 15 32 15 17
0 20 -5 16 -31z m151 -193 c12 -15 5 -46 -11 -46 -5 0 -3 -7 6 -15 8 -8 23
-15 34 -15 17 0 75 -38 62 -40 -29 -7 -117 -7 -130 0 -9 5 -23 4 -32 -1 -11
-6 -18 -4 -22 6 -4 10 -14 13 -35 9 -34 -7 -81 2 -81 15 0 5 12 11 28 14 15 3
41 9 57 12 17 3 40 8 52 11 16 3 20 9 16 21 -4 9 1 21 12 29 24 17 30 17 44 0z
m564 -127 c-8 -30 -41 -46 -108 -52 -36 -4 -64 -12 -71 -21 -7 -11 -29 -15
-73 -15 -47 1 -66 -3 -75 -16 -12 -17 -59 -17 -86 0 -6 4 -16 2 -23 -3 -29
-24 -129 -72 -149 -72 -12 0 -34 -11 -48 -25 -37 -35 -121 -46 -151 -19 -12
10 -25 26 -30 36 -8 15 -6 16 24 6 64 -20 77 -20 104 -2 16 10 55 24 88 31 49
10 66 19 95 52 42 46 71 56 94 30 25 -29 44 -23 52 16 9 48 28 62 47 35 8 -12
21 -21 28 -20 27 4 40 0 34 -10 -8 -13 1 -13 41 2 18 6 35 19 37 29 4 15 16
18 71 18 36 0 74 4 83 10 10 6 19 11 20 11 0 0 -1 -9 -4 -21z m24726 -114 c11
-20 16 -37 10 -40 -5 -4 -7 -19 -4 -36 4 -21 1 -29 -9 -29 -21 0 -28 30 -10
47 17 18 4 40 -18 29 -78 -42 -112 -64 -116 -75 -3 -9 2 -11 16 -7 54 17 15
-37 -40 -57 -22 -8 -23 -27 -4 -53 14 -19 15 -19 46 4 l32 24 15 -21 c14 -20
16 -21 42 -5 32 19 32 54 0 54 -10 0 -21 5 -25 11 -4 8 3 9 24 4 18 -3 33 -2
37 4 9 16 45 13 45 -2 0 -8 -9 -22 -20 -32 -11 -10 -20 -28 -20 -40 0 -28 -23
-48 -47 -41 -10 3 -31 -3 -48 -14 -18 -12 -47 -20 -73 -20 -33 0 -48 -6 -66
-25 -38 -41 -54 -33 -54 27 0 64 9 88 42 121 14 15 26 36 26 48 0 29 46 89 68
89 42 0 92 21 92 39 0 43 32 41 59 -4z m-24779 -9 c-18 -22 -8 -59 20 -73 l24
-12 -29 -11 c-22 -8 -37 -7 -67 5 -41 16 -58 13 -58 -11 0 -15 1 -15 -54 -18
-50 -4 -82 24 -66 54 6 11 20 20 31 20 12 0 39 10 61 22 37 21 41 22 53 5 16
-22 16 -22 51 8 31 27 54 34 34 11z m2892 -127 c2 -15 10 -34 17 -43 11 -13
11 -20 -3 -41 -9 -13 -29 -31 -45 -39 -15 -8 -34 -30 -42 -48 -7 -18 -38 -59
-69 -91 -49 -52 -55 -62 -55 -101 0 -28 -7 -52 -18 -64 -16 -17 -16 -21 -2
-32 19 -16 19 -44 0 -60 -26 -21 -14 -53 23 -64 35 -10 41 -30 17 -57 -14 -15
-14 -18 1 -34 38 -38 0 -226 -63 -313 -13 -17 -22 -36 -19 -41 8 -12 -21 -34
-34 -26 -20 13 -10 59 21 91 31 32 33 40 28 140 -3 50 9 80 38 94 l28 14 -26
4 c-34 4 -75 48 -84 90 -5 25 -3 32 9 32 17 0 17 -1 19 83 2 47 -1 58 -15 63
-24 7 -23 31 3 45 15 8 18 14 10 22 -17 17 -13 35 9 42 11 3 20 14 20 23 0 10
24 42 53 72 29 30 58 67 64 82 7 14 21 29 32 33 12 3 21 12 21 20 0 8 9 17 20
20 23 7 44 41 35 56 -4 5 -15 7 -25 4 -29 -9 -34 14 -9 41 25 27 36 22 41 -17z
m-2862 -318 c0 -5 -11 -22 -24 -38 -17 -21 -22 -33 -15 -45 6 -11 4 -20 -6
-28 -8 -7 -15 -25 -15 -40 0 -16 -7 -30 -15 -34 -23 -8 -18 -26 8 -26 12 0 30
-12 41 -26 18 -25 18 -26 -3 -48 -12 -13 -18 -29 -15 -41 3 -13 -3 -28 -19
-43 -20 -19 -38 -24 -107 -27 -60 -3 -87 -9 -101 -21 -19 -17 -20 -17 -37 0
-16 17 -16 19 2 29 11 7 29 21 40 32 12 11 34 27 49 35 16 8 26 20 25 29 -3
13 -18 16 -73 17 -39 1 -78 -3 -88 -8 -12 -6 -23 -5 -33 2 -16 14 -10 30 11
30 7 0 37 16 66 35 59 38 89 43 113 19 15 -14 20 -13 54 17 20 18 47 42 59 52
16 14 21 27 17 46 -4 21 1 35 24 59 31 33 42 39 42 23z m22982 -2623 c-23 -21
-50 -38 -61 -38 -21 0 -51 -35 -51 -58 0 -21 -62 -112 -76 -112 -23 0 -44 12
-44 26 0 8 5 14 10 14 6 0 10 9 10 19 0 11 11 33 25 49 14 17 25 35 25 41 0
29 42 76 77 87 21 7 56 19 78 27 36 14 40 14 44 -1 2 -9 -14 -32 -37 -54z
m-252 -263 c8 -9 21 -13 34 -10 21 6 21 6 1 -10 -19 -15 -19 -15 3 -31 12 -8
22 -19 22 -23 0 -15 -102 -51 -146 -51 -41 0 -46 -3 -55 -29 -13 -38 -44 -46
-63 -16 -11 17 -12 25 -3 34 15 15 27 14 27 -4 0 -25 16 -17 41 20 13 19 31
35 40 35 17 0 39 39 39 69 0 10 3 21 7 24 11 12 40 7 53 -8z m-625 -3625 c3
-5 0 -22 -8 -37 -8 -15 -12 -33 -10 -40 7 -20 -16 -126 -30 -135 -6 -4 -26 -5
-43 -2 -18 3 -35 1 -38 -5 -4 -6 -18 -11 -32 -11 -17 0 -24 5 -24 20 0 19 17
58 31 70 21 20 37 57 33 79 -2 14 0 32 5 40 8 13 14 13 38 2 25 -11 29 -11 43
8 17 23 26 26 35 11z m10729 -7035 c4 -11 20 -15 55 -15 40 0 52 -4 61 -20 6
-11 19 -20 29 -20 10 0 24 -7 31 -15 10 -12 7 -20 -18 -45 -17 -16 -40 -30
-52 -30 -19 0 -109 84 -110 103 0 4 -6 7 -14 7 -16 0 -25 19 -18 38 6 17 29
15 36 -3z m-2460 -1070 c8 -8 18 -24 21 -35 5 -16 10 -18 25 -10 10 6 31 10
45 10 21 0 26 -4 23 -21 -5 -36 -33 -47 -69 -26 l-31 18 -34 -35 c-19 -19 -34
-41 -34 -49 0 -18 -24 -39 -33 -30 -4 3 -4 23 -1 44 5 30 3 39 -14 48 -10 6
-22 8 -25 5 -3 -3 -8 0 -13 7 -5 9 2 11 29 6 37 -6 47 3 47 42 0 37 37 52 64
26z m3194 -102 c32 -50 29 -81 -5 -51 -17 15 -36 20 -121 35 -31 5 -33 3 -30
-18 4 -30 -27 -39 -35 -9 -4 17 -13 20 -61 20 -46 0 -71 -8 -137 -41 -93 -46
-152 -51 -157 -13 -4 31 23 55 51 45 26 -10 84 16 92 40 5 15 24 17 138 16 84
-1 139 3 152 11 11 6 34 12 51 12 25 0 35 -8 62 -47z m-46614 -1225 c2 -7 8
-28 14 -47 13 -38 -4 -75 -38 -84 -10 -2 -30 -23 -44 -46 -22 -35 -31 -41 -61
-41 -40 0 -41 -1 -59 -71 -14 -54 -21 -59 -58 -44 -13 5 -18 2 -18 -9 0 -9 6
-16 14 -16 7 0 19 -7 26 -15 8 -9 30 -15 57 -15 56 0 83 -14 83 -44 0 -17 7
-26 25 -30 18 -5 25 -13 25 -31 0 -29 -24 -33 -54 -10 -11 8 -28 15 -38 15 -9
0 -32 13 -50 29 -20 17 -51 31 -76 36 -24 4 -56 13 -70 21 -15 8 -40 14 -57
14 -16 0 -37 4 -45 10 -12 7 -11 12 5 29 18 21 18 22 -3 44 -12 13 -22 29 -22
35 0 17 25 15 40 -3 7 -8 35 -22 63 -30 58 -17 67 -12 67 41 0 17 8 37 18 45
35 29 88 53 126 59 25 3 43 12 50 25 5 11 19 33 29 49 16 23 17 30 6 37 -8 5
-17 9 -21 9 -10 0 -10 34 -1 43 11 12 64 7 67 -5z m53706 -470 c0 -19 -103
-117 -130 -123 -15 -3 -44 -15 -65 -25 -58 -29 -113 -35 -136 -14 -27 25 -24
32 19 40 20 3 48 14 62 22 14 9 50 29 80 45 30 15 64 36 75 47 30 27 95 33 95
8z m-50249 -97 c-12 -12 -21 -25 -21 -31 0 -5 -13 -10 -28 -10 -30 0 -52 -16
-52 -38 0 -8 -9 -27 -21 -43 -14 -21 -19 -38 -14 -57 4 -21 0 -33 -16 -48 -21
-19 -21 -19 -46 10 l-25 29 24 18 c15 12 22 26 20 43 -5 37 11 60 71 99 46 31
115 59 125 51 2 -1 -6 -12 -17 -23z m-2249 -59 c10 -9 27 -12 45 -8 36 8 91
-14 120 -48 13 -14 28 -26 35 -26 9 0 9 -3 0 -12 -15 -15 -16 -54 -2 -63 15
-9 12 -58 -5 -81 -8 -10 -15 -29 -15 -42 0 -12 -6 -38 -14 -56 -9 -22 -11 -38
-4 -50 10 -19 3 -66 -10 -66 -5 0 -18 20 -30 44 -22 44 -30 74 -12 46 6 -10
10 -11 10 -2 0 6 -9 21 -20 32 -23 23 -25 43 -6 62 7 8 21 28 30 46 15 28 15
35 2 67 -8 19 -19 35 -25 35 -5 0 -13 9 -16 20 -3 11 -11 20 -17 20 -6 0 -33
16 -59 35 -53 38 -74 42 -104 21 -11 -7 -32 -15 -47 -18 l-26 -5 26 34 c25 31
31 33 77 31 28 -1 58 -8 67 -16z m51818 -247 c25 -13 32 -13 64 0 40 17 96 20
96 5 0 -20 -148 -51 -362 -76 -49 -5 -58 -4 -58 9 0 25 37 40 135 58 50 9 91
17 93 18 2 0 16 -6 32 -14z m-13382 -260 c5 -4 -18 -47 -32 -61 -35 -35 -137
-47 -191 -22 -35 16 -31 28 10 28 24 0 44 9 67 29 18 16 42 31 53 34 18 4 85
-2 93 -8z m-36237 -159 c-13 -16 12 -25 69 -26 29 -1 32 -2 17 -11 -10 -6 -31
-8 -46 -4 -21 4 -44 -3 -92 -29 -35 -19 -69 -44 -76 -54 -6 -11 -23 -22 -36
-26 -32 -8 -97 -66 -133 -117 -15 -21 -33 -39 -40 -39 -21 0 -17 8 19 46 29
32 32 41 32 97 0 59 1 62 25 62 18 0 26 -6 28 -22 5 -33 29 -28 37 6 3 17 14
31 26 34 11 3 19 14 19 26 0 24 1 25 34 10 29 -14 56 1 56 31 0 20 13 28 49
29 19 1 21 -2 12 -13z m-381 -198 c22 13 60 16 60 5 -2 -31 -81 -63 -156 -63
-19 0 -44 -4 -54 -10 -25 -13 -110 -1 -110 16 0 14 14 19 75 30 22 4 51 12 64
19 17 8 33 9 62 1 30 -8 45 -7 59 2z m-1211 -124 c3 -3 -5 -11 -17 -20 -12 -8
-22 -21 -22 -27 0 -7 -21 -29 -46 -49 -34 -27 -56 -38 -81 -38 -47 0 -184 65
-177 84 3 8 1 17 -5 21 -14 8 -14 25 -1 25 6 0 10 -7 10 -15 0 -10 10 -15 29
-15 16 0 31 -6 34 -14 3 -7 26 -17 52 -21 40 -6 50 -3 66 14 11 12 27 21 35
21 9 0 30 11 46 25 27 23 58 26 77 9z m3400 -146 c6 -15 4 -32 -5 -50 -8 -15
-14 -41 -14 -58 0 -17 -5 -41 -11 -53 -7 -12 -13 -36 -14 -54 -2 -39 -43 -87
-86 -102 -34 -12 -36 -3 -8 32 16 21 18 31 9 47 -8 14 -8 26 1 41 8 15 8 24 0
32 -19 19 -12 35 19 46 17 5 30 15 30 22 0 6 14 31 30 56 17 24 30 48 30 54 0
17 10 9 19 -13z m9101 -1378 c0 -5 -12 -16 -28 -24 -15 -8 -36 -23 -46 -35
-11 -12 -24 -21 -31 -21 -15 0 -37 -41 -33 -60 2 -10 -11 -16 -44 -20 -31 -4
-57 -15 -75 -31 -58 -54 -163 -59 -163 -8 0 26 26 35 63 21 26 -10 34 -8 73
19 24 16 44 34 44 39 0 6 14 10 30 10 29 0 130 64 130 81 0 4 7 15 16 23 17
17 64 22 64 6z m-11485 -244 c17 -12 25 -12 54 0 42 18 41 18 41 -6 0 -13 -9
-22 -27 -26 -16 -3 -46 -15 -69 -25 -22 -10 -52 -19 -67 -19 -21 0 -30 -7 -42
-36 -8 -20 -15 -46 -15 -58 0 -11 -6 -28 -13 -37 -19 -25 -126 -109 -138 -109
-7 0 -22 -12 -35 -26 -28 -29 -70 -30 -88 -1 -13 21 5 37 42 37 38 0 99 37
106 64 4 15 17 28 36 34 16 6 31 17 32 24 0 7 2 18 2 23 1 6 11 24 24 39 25
33 29 51 7 43 -8 -4 -17 -1 -21 5 -5 8 3 9 24 5 19 -4 32 -2 32 3 0 6 17 18
38 27 20 10 39 19 41 20 3 2 -4 10 -15 18 -18 14 -18 14 7 15 14 0 34 -6 44
-14z m-1050 -243 c-4 -16 -7 -40 -6 -55 0 -34 -21 -37 -46 -8 -21 24 -70 26
-99 6 -10 -8 -29 -12 -42 -9 -16 4 -28 -2 -43 -21 -23 -30 -37 -32 -65 -12
-19 14 -19 15 4 39 29 31 82 44 95 22 11 -20 24 -19 54 5 14 11 35 20 45 20
11 0 31 9 45 20 14 11 35 20 46 20 16 0 18 -4 12 -27z m36258 -1254 c30 -47
-26 -94 -114 -94 -34 0 -53 -6 -77 -27 -20 -17 -50 -29 -80 -34 -26 -3 -59
-13 -74 -20 -36 -19 -51 -18 -79 5 -34 27 -12 51 49 51 32 0 58 8 94 30 51 32
87 37 117 18 15 -9 24 -7 47 11 15 12 36 35 46 52 20 33 53 37 71 8z m-23933
-1734 c9 -24 4 -49 -20 -100 -5 -11 -11 -38 -12 -59 -3 -38 -28 -66 -28 -31 0
9 -15 22 -35 31 -19 8 -35 16 -35 18 0 3 -3 12 -7 22 -5 14 -2 16 23 11 29 -5
84 16 84 33 0 16 -46 23 -69 10 -41 -22 -17 32 29 64 45 32 58 32 70 1z m-53
-302 c4 -10 16 -30 26 -45 23 -32 25 -85 3 -106 -12 -13 -20 -13 -41 -4 -32
15 -42 39 -26 65 17 27 0 43 -29 27 -22 -12 -50 -8 -50 7 0 5 13 23 29 41 33
36 77 43 88 15z m37703 -702 c0 -5 9 -13 20 -16 11 -3 20 -13 20 -21 0 -21
-29 -29 -51 -16 -39 25 -63 14 -99 -40 -29 -43 -40 -52 -60 -50 -54 6 -74 1
-118 -29 -40 -27 -49 -29 -71 -19 l-25 12 24 18 c27 21 27 21 -13 38 -36 15
-30 38 9 34 51 -4 58 -4 141 3 83 8 101 17 151 79 14 17 72 22 72 7z m-11760
-1451 l21 -29 -21 -43 c-11 -23 -20 -61 -20 -84 0 -42 -20 -72 -40 -59 -5 3
-10 20 -10 36 0 21 -7 32 -24 40 -24 11 -42 51 -31 69 3 4 -4 6 -15 3 -28 -7
-51 4 -44 21 8 21 32 28 55 16 15 -8 19 -7 19 4 0 17 49 55 72 56 9 0 26 -13
38 -30z m-26810 -398 c0 -5 -7 -30 -16 -55 -15 -44 -38 -63 -70 -56 -24 4 -33
-4 -44 -36 -9 -29 -16 -35 -39 -35 -16 0 -37 -10 -51 -25 -23 -25 -60 -34 -60
-15 0 5 18 19 39 30 38 19 71 55 84 93 4 10 21 24 39 32 18 7 46 27 62 44 28
29 56 41 56 23z"/>
</g>
</svg>
